<?xml version="1.0" encoding="UTF-8"?>
<svg width="298px" height="335px" viewBox="0 0 298 335" version="1.1" xmlns="http://www.w3.org/2000/svg" xmlns:xlink="http://www.w3.org/1999/xlink">
    <!-- Generator: Sketch 55.2 (78181) - https://sketchapp.com -->
    <title>venice-logomark</title>
    <desc>Created with Sketch.</desc>
    <g id="Page-1" stroke="none" stroke-width="1" fill="none" fill-rule="evenodd">
        <g id="venice-logomark" fill="#FFFFFF">
            <path d="M96.421,225.649 C90.5700488,221.30525 83.981664,218.055608 76.974,216.057 C69.646,213.976 61.616,213.241 53.765,214.113 C45.913,214.984 38.24,217.465 31.545,221.103 C25.1450239,224.591241 19.4284206,229.20782 14.671,234.73 C9.91194563,240.255343 6.18987942,246.594746 3.684,253.443 C1.074,260.608 -0.25,268.572 0.04,276.477 C0.33,284.382 2.237,292.227 5.367,299.18 C11.4149843,312.578555 22.1372718,323.314707 35.528,329.38 C42.472,332.515 50.308,334.423 58.201,334.715 C66.096,335.006 74.049,333.68 81.206,331.065 C95.0055278,326.00291 106.48772,316.086019 113.504,303.17 C117.137,296.466 119.614,288.782 120.485,280.921 C121.356,273.059 120.621,265.018 118.544,257.68 C116.548228,250.665809 113.302876,244.069411 108.964,238.208 L122.447,224.706 L132.262,234.534 L137.837,234.534 L144.565,227.797 L144.565,222.216 L134.75,212.388 L149,198.121 L163.249,212.388 L153.434,222.216 L153.434,227.797 L160.162,234.534 L165.737,234.534 L175.552,224.706 L189.035,238.208 C184.696124,244.069411 181.450772,250.665809 179.455,257.68 C177.378,265.018 176.643,273.059 177.514,280.921 C178.385,288.782 180.862,296.466 184.495,303.17 C191.51128,316.086019 202.993472,326.00291 216.793,331.065 C223.949,333.68 231.903,335.006 239.798,334.715 C247.692,334.423 255.527,332.515 262.471,329.38 C275.861887,323.314937 286.584246,312.578714 292.632,299.18 C295.762,292.227 297.668,284.382 297.959,276.477 C298.25,268.572 296.926,260.608 294.315,253.443 C289.266134,239.636049 279.362543,228.139922 266.455,221.103 C259.76,217.465 252.087,214.984 244.235,214.113 C236.383,213.241 228.354,213.976 221.026,216.057 C214.018336,218.055608 207.429951,221.30525 201.579,225.649 L188.345,212.377 L198.154,202.555 L198.154,196.974 L191.187,189.996 L185.612,189.996 L175.797,199.824 L161.543,185.561 L236.273,110.733 L266.524,141.024 L266.524,109.508 L298,109.508 L267.749,79.217 L298,48.927 L298,43.344 L291.032,36.367 L285.457,36.367 L149,173 L12.542,36.367 L6.968,36.367 L0,43.345 L0,48.928 L30.25,79.216 L0,109.508 L31.476,109.508 L31.476,141.024 L61.726,110.733 L136.457,185.561 L122.203,199.824 L112.388,189.996 L106.813,189.996 L99.845,196.974 L99.845,202.555 L109.655,212.377 L96.421,225.649 Z M217.69,294.966 C214.613,301.286 215.252,310.044 219.214,315.849 C222.854,321.862 230.553,326.066 237.573,325.875 C244.592,326.066 252.292,321.862 255.932,315.849 C259.893,310.044 260.532,301.286 257.456,294.966 L258.222,294.139 C264.534,297.237 273.293,296.61 279.1,292.644 C285.115,289.003 289.323,281.285 289.13,274.249 C289.323,267.214 285.115,259.496 279.1,255.854 C273.293,251.889 264.534,251.261 258.222,254.359 L257.456,253.533 C260.532,247.213 259.893,238.454 255.932,232.649 C252.292,226.637 244.592,222.432 237.573,222.624 C230.553,222.432 222.854,226.637 219.214,232.649 C215.252,238.454 214.613,247.213 217.69,253.533 L216.924,254.359 C210.612,251.261 201.852,251.889 196.046,255.854 C190.031,259.496 185.822,267.214 186.014,274.249 C185.822,281.285 190.031,289.003 196.046,292.644 C201.852,296.61 210.612,297.237 216.924,294.139 L217.69,294.966 L217.69,294.966 Z M78.784,315.849 C82.745,310.044 83.384,301.286 80.307,294.966 L81.073,294.139 C87.385,297.237 96.144,296.61 101.952,292.644 C107.966,289.003 112.175,281.285 111.982,274.249 C112.175,267.214 107.966,259.496 101.952,255.854 C96.144,251.889 87.385,251.261 81.073,254.359 L80.307,253.533 C83.384,247.213 82.745,238.454 78.784,232.649 C75.144,226.637 67.444,222.432 60.424,222.624 C53.405,222.432 45.705,226.637 42.065,232.649 C38.104,238.454 37.465,247.213 40.542,253.533 L39.776,254.359 C33.464,251.261 24.705,251.889 18.897,255.854 C12.883,259.496 8.674,267.214 8.866,274.249 C8.674,281.285 12.883,289.003 18.897,292.644 C24.705,296.61 33.464,297.237 39.776,294.139 L40.542,294.966 C37.465,301.286 38.104,310.044 42.065,315.849 C45.705,321.862 53.405,326.066 60.425,325.875 C67.444,326.066 75.144,321.862 78.784,315.849 Z" id="Shape"></path>
            <path d="M148.9,36.367 L184.722,0.5 L202.459,18.261 L202.459,78.131 L153.335,127.319 L144.466,127.319 L95.342,78.131 L95.342,18.261 L113.08,0.5 L148.9,36.367 Z M113.08,13.059 L144.466,44.487 L144.466,102.2 L113.08,70.774 L113.08,13.059 Z M153.337,44.487 L184.723,13.059 L184.723,70.774 L153.337,102.201 L153.337,44.487 Z" id="Shape"></path>
        </g>
    </g>
</svg>