<?xml version="1.0" encoding="UTF-8"?>
<svg width="467px" height="212px" viewBox="0 0 467 212" version="1.1" xmlns="http://www.w3.org/2000/svg" xmlns:xlink="http://www.w3.org/1999/xlink">
    <!-- Generator: Sketch 55.2 (78181) - https://sketchapp.com -->
    <title>logtype</title>
    <desc>Created with Sketch.</desc>
    <g id="Page-1" stroke="none" stroke-width="1" fill="none" fill-rule="evenodd">
        <g id="logtype" fill="#FFFFFF">
            <path d="M465.268,152.14 C464.732,151.713 464.109,151.589 463.607,151.589 C462.612,151.589 461.582,152.057 460.822,152.82 L460.689,152.949 L460.595,153.103 C450.206,169.427 441.494,180.32 433.877,187.117 C426.272,193.904 419.89,196.496 414.112,196.496 C410.848,196.496 408.976,195.553 407.864,194.191 C406.696,192.761 406.099,190.551 406.099,187.489 C406.099,182.692 407.511,177.016 409.745,171.08 C411.891,165.377 414.756,159.535 417.717,154.159 C428.868,150.854 441.924,144.896 450.442,137.379 L450.455,137.369 L450.467,137.358 C453.51,134.566 456.102,131.663 457.943,128.738 C459.78,125.819 460.93,122.782 460.93,119.758 C460.93,117.478 460.286,115.095 458.544,113.275 C456.788,111.437 454.132,110.404 450.583,110.404 C443.554,110.404 434.611,113.75 426.006,119.425 C417.361,125.124 408.87,133.293 402.775,143.197 C400.691965,146.55031 398.904882,150.078636 397.434,153.742 C387.419,168.704 378.861,179.432 371.154,186.413 C363.423,193.415 356.714,196.495 350.388,196.495 C347.438,196.495 345.602,195.533 344.458,194.108 C343.263,192.621 342.622,190.382 342.622,187.489 C342.622,181.864 344.508,175.097 347.637,167.767 C350.755,160.462 355.049,152.726 359.738,145.199 C365.047,136.68 370.319,129.334 375.089,124.139 C377.475,121.539 379.696,119.523 381.694,118.168 C383.717,116.796 385.354,116.21 386.61,116.21 C387.938,116.21 389.119,116.977 390.368,118.754 C391.629,120.548 392.703,123.011 393.893,125.763 L395.613,129.732 L403.392,115.588 L402.262,114.719 C398.704,111.982 393.867,110.404 388.347,110.404 C369.457,110.404 350.889,124.55 340.541,141.21 L340.539,141.212 C338.072,145.198 335.911,149.208 334.178,153.346 L326.155,165.746 L326.152,165.749 C320.3,174.84 315.228,182.652 310.22,188.206 C305.201,193.773 300.533,196.743 295.545,196.743 C293.465,196.743 292.049,196.197 291.17,195.404 C290.314,194.632 289.765,193.443 289.765,191.707 C289.765,189.396 290.227,187.211 293.496,181.283 C296.783,175.326 302.764,165.827 313.568,148.937 L313.571,148.932 L333.777,117.109 L332.882,112.638 L303.179,112.638 L302.735,112.97 C302.077,113.463 301.578,114.025 301.254,114.673 C300.967991,115.250897 300.822704,115.888242 300.83,116.533 L300.83,118.195 L311.335,118.195 L299.347,137.234 C295.861,142.796 292.764,147.899 290.192,152.825 L290.182,152.832 L283.326,162.99 C276.358,173.317 270.416,182.007 264.752,188.128 C259.064,194.274 253.962,197.488 248.729,197.488 C246.899,197.488 245.675,197.005 244.923,196.313 C244.19,195.641 243.692,194.576 243.692,192.947 C243.692,191.032 244.446,188.613 246.663,184.787 C248.871,180.976 252.414,175.96 257.747,168.891 L265.437,158.72 L265.438,158.719 C275.477,145.417 278.426,137.626 278.426,127.697 C278.426,122.879 277.739,118.613 275.9,115.501 C273.978,112.248 270.88,110.404 266.592,110.404 C260.89,110.404 254.682,113.313 248.182,118.304 C241.649,123.321 234.624,130.594 227.255,139.675 L227.08,139.891 L224.837,139.891 L224.837,126.953 C224.837,122.216 223.953,118.541 221.707,116.067 C219.424,113.552 216.069,112.638 212.01,112.638 L202.899,112.638 L202.412,113.124 C201.591537,113.955736 201.011673,114.994169 200.734,116.129 L200.218,118.195 L211.018,118.195 C214.131,118.195 215.662,118.751 216.435,119.427 C217.14,120.044 217.543,121.058 217.543,122.983 C217.543,124.845 216.862,127.181 215.412,130.203 C213.971,133.205 211.848,136.729 209.126,140.936 L209.121,140.943 L171.527,200.316 L192.817,200.316 L214.404,167.046 L215.636,165.075 C226.02,149.749 235.741,137.518 244.367,129.138 C248.682,124.945 252.685,121.753 256.323,119.618 C259.973,117.476 263.151,116.458 265.848,116.458 C267.484,116.458 268.21,116.842 268.549,117.181 C268.885,117.517 269.148,118.117 269.148,119.262 C269.148,120.944 268.444,123.186 266.691,126.329 C264.953,129.446 262.283,133.277 258.576,138.096 L258.575,138.098 L250.388,148.766 L250.385,148.769 C239.881,162.525 234.91,173.552 234.91,184.512 C234.91,188.488 235.543,192.972 237.542,196.523 C239.607,200.191 243.111,202.797 248.481,202.797 C255.986,202.797 262.87,197.813 269.265,190.9 C273.83,185.966 278.316,179.859 282.769,173.403 C282.235722,176.49842 281.969741,179.633982 281.974,182.775 C281.974,186.572 282.408,191.286 284.284,195.107 C285.234,197.042 286.579,198.797 288.467,200.065 C290.365,201.34 292.711,202.053 295.545,202.053 C302.598,202.053 308.78,197.571 314.405,191.355 C319.71,185.492 324.796,177.769 329.888,169.906 C329.710205,171.709195 329.621431,173.520061 329.622,175.332 C329.622,182.389 331.286,189.068 334.653,194.035 C338.057,199.057 343.197,202.301 349.892,202.301 C357.268,202.301 364.535,199.066 372.292,192.521 C378.817,187.017 385.777,179.097 393.548,168.573 C393.249553,170.897095 393.09925,173.237821 393.098,175.581 C393.098,182.531 394.832,189.147 398.23,194.077 C401.658,199.051 406.791,202.301 413.368,202.301 C420.852,202.301 428.546,199.011 437.044,191.495 C445.528,183.993 454.93,172.181 465.882,154.885 L466.139,154.478 L466.139,153.996 C466.139,153.288 465.852,152.607 465.268,152.14 L465.268,152.14 Z M438.289,124.26 C441.035,121.41 443.614,119.25 445.97,117.812 C448.339,116.368 450.377,115.714 452.072,115.714 C453.493,115.714 454.231,116.112 454.639,116.548 C455.063,117.006 455.372,117.78 455.372,119.014 C455.372,120.805 454.613,122.971 453.059,125.407 C451.613,127.671 449.545,130.059 447.004,132.44 C446.837,132.598 446.665,132.756 446.494,132.914 L446.485,132.92 L446.489,132.916 C440.091,138.696 430.586,143.831 421.518,147.339 C427.301,137.583 433.032,129.723 438.289,124.26 L438.289,124.26 Z" id="Shape"></path>
            <path d="M187.919,154.478 L187.919,153.996 C187.919,153.288 187.631,152.607 187.047,152.14 C186.514,151.713 185.891,151.589 185.389,151.589 C184.392,151.589 183.364,152.057 182.601,152.82 L182.472,152.949 L182.374,153.103 C171.986,169.427 163.275,180.32 155.657,187.117 C148.053,193.904 141.67,196.496 135.893,196.496 C132.628,196.496 130.756,195.553 129.644,194.191 C128.476,192.761 127.879,190.551 127.879,187.489 C127.879,182.692 129.291,177.016 131.525,171.08 C133.671,165.377 136.536,159.535 139.497,154.159 C150.648,150.854 163.703,144.896 172.223,137.379 L172.234,137.369 L172.246,137.358 C175.291,134.566 177.884,131.663 179.725,128.738 C181.561,125.819 182.709,122.782 182.709,119.758 C182.709,117.478 182.067,115.095 180.326,113.275 C178.567,111.437 175.912,110.404 172.364,110.404 C165.335,110.404 156.392,113.75 147.786,119.425 C139.141,125.125 130.649,133.295 124.553,143.2 C117.95,153.868 114.879,165.084 114.879,175.581 C114.879,182.531 116.612,189.147 120.01,194.077 C123.438,199.051 128.572,202.301 135.148,202.301 C142.632,202.301 150.327,199.011 158.827,191.495 C167.31,183.993 176.711,172.181 187.662,154.885 L187.919,154.478 L187.919,154.478 Z M160.07,124.26 C162.815,121.41 165.395,119.25 167.752,117.812 C170.119,116.368 172.158,115.714 173.852,115.714 C175.272,115.714 176.012,116.112 176.418,116.548 C176.843,117.006 177.152,117.78 177.152,119.014 C177.152,120.805 176.395,122.971 174.839,125.407 C173.296,127.822 171.048,130.379 168.269,132.917 C161.868,138.697 152.368,143.831 143.298,147.339 C149.082,137.583 154.811,129.723 160.07,124.26 L160.07,124.26 Z M133.572,100.717 C135.965,97.264 138.342,93.832 140.714,90.441 C156.355,68.071 171.181,46.879 187.261,31.259 C203.316,15.663 220.437,5.806 240.641,5.806 C247.657,5.806 254.916,7.017 261.186,9.188 L262.732,9.723 L264.888,3.796 L263.194,3.294 C256.352,1.267 248.502,0 240.641,0 C218.918,0 200.561,10.525 183.903,26.547 L67.27,26.547 L63.786,32.352 L111.824,32.352 C99.262,38.352 90.016,48.422 83.091,59.29 C74.693,72.468 69.616,86.965 66.144,97.135 C62.409,107.819 59.34,117.665 56.52,126.711 L56.518,126.72 C50.488,146.062 45.628,161.62 37.848,174.273 C30.127,186.831 19.498,196.563 1.815,204.071 L0,204.841 L4.16,211.312 L5.535,210.51 C11.371,207.106 16.892,204.738 23.49,202.776 C50.414,194.768 71.91,177.816 90.559,157.341 C106.359,139.994 120.198,120.019 133.572,100.717 Z M37.509,187.949 C47.269,179.283 55.171,169.603 62.254,157.545 C70.095,144.196 76.932,127.933 84.172,106.903 L84.172,106.905 L84.172,106.902 C86.09,101.365 87.865,95.837 89.594,90.45 L89.597,90.441 C94.708,74.522 99.4,59.951 106.287,49.328 C113.095,38.829 121.936,32.352 135.446,32.352 L178.168,32.352 C163.589,47.733 149.961,67.173 135.916,87.211 L135.86,87.29 C108.295,126.615 79.083,168.208 37.509,187.949 Z" id="Shape"></path>
        </g>
    </g>
</svg>