<svg viewBox="0 0 366 366" focusable="false" class="chakra-icon css-10mpogm"><g fill="currentColor" fill-rule="evenodd" clip-rule="evenodd"><path d="M130.421 240.649a60.428 60.428 0 0 0-19.447-9.592c-7.328-2.081-15.358-2.816-23.209-1.944-7.852.871-15.525 3.352-22.22 6.99a60.47 60.47 0 0 0-16.874 13.627 60.564 60.564 0 0 0-10.987 18.713c-2.61 7.165-3.934 15.129-3.644 23.034.29 7.905 2.197 15.75 5.327 22.703a60.461 60.461 0 0 0 30.161 30.2c6.944 3.135 14.78 5.043 22.673 5.335 7.895.291 15.848-1.035 23.005-3.65a60.446 60.446 0 0 0 32.298-27.895c3.633-6.704 6.11-14.388 6.981-22.249.871-7.862.136-15.903-1.941-23.241a60.604 60.604 0 0 0-9.58-19.472l13.483-13.502 9.815 9.828h5.575l6.728-6.737v-5.581l-9.815-9.828L183 213.121l14.249 14.267-9.815 9.828v5.581l6.728 6.737h5.575l9.815-9.828 13.483 13.502a60.604 60.604 0 0 0-9.58 19.472c-2.077 7.338-2.812 15.379-1.941 23.241.871 7.861 3.348 15.545 6.981 22.249a60.446 60.446 0 0 0 32.298 27.895c7.156 2.615 15.11 3.941 23.005 3.65 7.894-.292 15.729-2.2 22.673-5.335a60.458 60.458 0 0 0 30.161-30.2c3.13-6.953 5.036-14.798 5.327-22.703.291-7.905-1.033-15.869-3.644-23.034a60.498 60.498 0 0 0-27.86-32.34c-6.695-3.638-14.368-6.119-22.22-6.99-7.852-.872-15.881-.137-23.209 1.944a60.428 60.428 0 0 0-19.447 9.592l-13.234-13.272 9.809-9.822v-5.581l-6.967-6.978h-5.575l-9.815 9.828-14.254-14.263 74.73-74.828 30.251 30.291v-31.516H332l-30.251-30.291L332 63.927v-5.583l-6.968-6.976h-5.575L183 188 46.542 51.367h-5.574L34 58.345v5.583l30.25 30.288L34 124.508h31.476v31.516l30.25-30.291 74.731 74.828-14.254 14.263-9.815-9.828h-5.575l-6.968 6.978v5.581l9.81 9.822-13.234 13.272Zm121.269 69.317c-3.077 6.32-2.438 15.078 1.524 20.883 3.64 6.013 11.339 10.217 18.359 10.026 7.019.191 14.719-4.013 18.359-10.026 3.961-5.805 4.6-14.563 1.524-20.883l.766-.827c6.312 3.098 15.071 2.471 20.878-1.495 6.015-3.641 10.223-11.359 10.03-18.395.193-7.035-4.015-14.753-10.03-18.395-5.807-3.965-14.566-4.593-20.878-1.495l-.766-.826c3.076-6.32 2.437-15.079-1.524-20.884-3.64-6.012-11.34-10.217-18.359-10.025-7.02-.192-14.719 4.013-18.359 10.025-3.962 5.805-4.601 14.564-1.524 20.884l-.766.826c-6.312-3.098-15.072-2.47-20.878 1.495-6.015 3.642-10.224 11.36-10.032 18.395-.192 7.036 4.017 14.754 10.032 18.395 5.806 3.966 14.566 4.593 20.878 1.495l.766.827Zm-138.906 20.883c3.961-5.805 4.6-14.563 1.523-20.883l.766-.827c6.312 3.098 15.071 2.471 20.879-1.495 6.014-3.641 10.223-11.359 10.03-18.395.193-7.035-4.016-14.753-10.03-18.395-5.808-3.965-14.567-4.593-20.879-1.495l-.766-.826c3.077-6.32 2.438-15.079-1.523-20.884-3.64-6.012-11.34-10.217-18.36-10.025-7.019-.192-14.719 4.013-18.359 10.025-3.961 5.805-4.6 14.564-1.523 20.884l-.766.826c-6.312-3.098-15.071-2.47-20.879 1.495-6.014 3.642-10.223 11.36-10.031 18.395-.192 7.036 4.017 14.754 10.031 18.395 5.808 3.966 14.567 4.593 20.879 1.495l.766.827c-3.077 6.32-2.438 15.078 1.523 20.883 3.64 6.013 11.34 10.217 18.36 10.026 7.019.191 14.719-4.013 18.359-10.026Z"></path><path d="M182.9 51.367 218.722 15.5l17.737 17.761v59.87l-49.124 49.188h-8.869l-49.124-49.188v-59.87L147.08 15.5l35.82 35.867Zm-35.82-23.308 31.386 31.428V117.2L147.08 85.774V28.059Zm40.257 31.428 31.386-31.428v57.715l-31.386 31.427V59.487Z"></path></g></svg>
